<?xml version="1.0" standalone="no"?>
<!DOCTYPE svg PUBLIC "-//W3C//DTD SVG 20010904//EN"
 "http://www.w3.org/TR/2001/REC-SVG-20010904/DTD/svg10.dtd">
<svg version="1.0" xmlns="http://www.w3.org/2000/svg"
 width="16.000000pt" height="16.000000pt" viewBox="0 0 16.000000 16.000000"
 preserveAspectRatio="xMidYMid meet">
<metadata>
Created by potrace 1.11, written by Peter Selinger 2001-2013
</metadata>
<g transform="translate(0.000000,16.000000) scale(0.001616,-0.001616)"
fill="#000000" stroke="none">
<path d="M4638 9864 c-4 -3 -63 -10 -130 -15 -117 -8 -174 -15 -315 -39 -35
-5 -89 -14 -120 -19 -32 -5 -78 -15 -103 -21 -25 -6 -65 -15 -90 -20 -25 -5
-65 -14 -90 -20 -25 -6 -57 -14 -73 -17 -15 -3 -30 -9 -33 -14 -3 -5 -20 -9
-39 -9 -19 0 -37 -4 -40 -10 -3 -5 -17 -10 -30 -10 -13 0 -27 -4 -30 -10 -3
-5 -17 -10 -30 -10 -13 0 -27 -4 -30 -10 -3 -5 -16 -10 -27 -10 -25 0 -139
-38 -153 -51 -5 -5 -19 -9 -31 -9 -13 0 -26 -4 -29 -10 -3 -5 -15 -10 -25 -10
-11 0 -35 -9 -55 -20 -20 -11 -42 -20 -50 -20 -8 0 -30 -9 -50 -20 -20 -11
-41 -20 -48 -20 -13 0 -494 -240 -542 -271 -16 -10 -39 -23 -50 -29 -41 -22
-65 -37 -82 -52 -10 -8 -25 -18 -33 -22 -41 -19 -193 -121 -209 -140 -7 -9
-19 -16 -25 -16 -7 0 -25 -13 -41 -30 -16 -16 -33 -30 -38 -30 -5 0 -27 -15
-48 -32 -21 -18 -62 -51 -90 -73 -68 -52 -692 -676 -744 -744 -22 -28 -55 -69
-73 -90 -17 -21 -32 -42 -32 -46 0 -4 -12 -22 -28 -41 -50 -61 -72 -92 -72
-102 0 -5 -9 -17 -20 -27 -11 -10 -20 -23 -20 -30 0 -7 -9 -20 -20 -30 -11
-10 -20 -23 -20 -28 0 -6 -7 -19 -17 -29 -16 -17 -30 -40 -53 -83 -6 -11 -19
-33 -30 -50 -11 -16 -24 -39 -30 -50 -6 -11 -19 -33 -29 -50 -30 -45 -231
-450 -231 -463 0 -6 -9 -27 -20 -47 -11 -20 -20 -42 -20 -50 0 -8 -9 -30 -20
-50 -11 -20 -20 -42 -20 -50 0 -8 -9 -30 -20 -50 -11 -20 -20 -44 -20 -55 0
-10 -5 -22 -10 -25 -6 -3 -10 -17 -10 -30 0 -13 -4 -27 -10 -30 -5 -3 -10 -17
-10 -30 0 -13 -4 -27 -10 -30 -5 -3 -10 -15 -10 -26 0 -10 -4 -27 -9 -37 -14
-29 -31 -87 -31 -110 0 -11 -4 -23 -9 -26 -5 -3 -11 -18 -14 -33 -3 -16 -11
-47 -16 -70 -6 -24 -16 -62 -22 -85 -24 -100 -58 -279 -79 -430 -6 -38 -15
-101 -21 -140 -17 -109 -17 -976 0 -1098 7 -52 17 -124 21 -160 48 -374 207
-919 377 -1290 37 -82 186 -376 197 -390 7 -8 25 -40 40 -70 16 -30 35 -62 42
-71 8 -8 14 -20 14 -26 0 -5 9 -18 20 -28 11 -10 20 -22 20 -28 0 -11 106
-173 133 -204 11 -12 25 -31 31 -41 28 -48 66 -99 90 -121 14 -14 26 -29 26
-34 0 -19 87 -111 421 -445 326 -327 406 -402 426 -402 5 0 20 -12 34 -26 22
-24 73 -62 121 -90 10 -6 29 -20 41 -31 25 -22 252 -173 260 -173 4 0 26 -14
50 -30 25 -16 47 -30 51 -30 3 0 20 -10 39 -23 19 -13 130 -71 248 -129 418
-207 821 -345 1249 -427 131 -25 159 -30 225 -40 111 -17 143 -21 255 -32 142
-15 788 -15 920 0 166 18 253 29 285 35 17 4 57 11 90 17 33 6 78 14 100 19
22 5 67 14 100 21 149 30 398 99 560 154 222 76 731 306 842 382 19 13 36 23
39 23 4 0 26 14 51 30 24 17 48 30 52 30 4 0 16 9 26 20 10 11 22 20 27 20 13
0 202 125 217 144 8 9 19 16 25 16 7 0 25 14 41 30 16 17 34 30 40 30 6 0 24
13 40 30 16 16 33 30 38 30 6 0 32 19 59 43 84 71 701 691 743 746 22 28 55
69 73 90 17 21 32 42 32 46 0 4 12 22 27 41 51 61 73 92 73 102 0 5 9 17 20
27 11 10 20 23 20 30 0 7 9 20 20 30 11 10 20 23 20 30 0 7 9 20 20 30 11 10
20 22 20 26 0 4 14 28 30 52 17 25 30 48 30 53 0 4 6 15 14 23 24 28 220 404
274 527 152 347 283 784 343 1144 24 144 30 189 41 275 14 124 15 976 0 1085
-25 192 -30 226 -35 240 -3 8 -10 49 -17 90 -28 171 -106 480 -169 665 -54
159 -88 249 -161 425 -44 105 -250 502 -276 531 -8 8 -14 19 -14 23 0 5 -14
28 -30 53 -16 24 -30 48 -30 52 0 4 -9 16 -20 26 -11 10 -20 23 -20 30 0 7 -9
20 -20 30 -11 10 -20 23 -20 30 0 7 -9 20 -20 30 -11 10 -20 22 -20 28 0 5
-10 22 -22 38 -13 15 -36 47 -53 69 -41 55 -86 115 -132 174 -51 66 -676 690
-742 741 -28 22 -69 55 -90 73 -21 17 -43 32 -48 32 -5 0 -22 14 -38 30 -16
17 -34 30 -40 30 -7 0 -20 9 -30 20 -10 11 -23 20 -30 20 -6 0 -21 10 -33 23
-12 13 -42 33 -66 45 -24 12 -49 29 -56 37 -7 8 -18 15 -25 15 -6 0 -20 9 -30
20 -10 11 -23 20 -28 20 -6 0 -18 6 -26 14 -9 8 -42 28 -74 44 -31 16 -63 34
-70 40 -17 14 -288 151 -377 191 -41 18 -93 41 -116 51 -83 38 -231 93 -378
141 -138 46 -191 61 -356 105 -80 21 -344 74 -422 85 -38 5 -101 14 -140 20
-40 5 -109 15 -153 20 -94 12 -767 24 -777 13z m1499 -2241 l1123 -448 0 -152
0 -153 -149 0 -148 0 -7 -31 c-8 -41 -63 -94 -111 -108 -28 -8 -563 -11 -1835
-11 -1272 0 -1807 3 -1835 11 -48 14 -103 67 -111 108 l-6 31 -149 0 -149 0 0
153 0 153 1118 446 c614 246 1122 447 1127 448 6 0 515 -201 1132 -447z
m-2179 -1945 l2 -898 150 0 150 0 0 900 0 900 300 0 300 0 0 -900 0 -900 150
0 150 0 0 900 0 900 300 0 300 0 0 -900 0 -900 150 0 150 0 0 900 0 900 300 0
300 0 0 -899 0 -899 93 -4 c105 -4 147 -22 184 -78 20 -29 23 -46 23 -131 l0
-99 -1950 0 -1950 0 0 99 c0 85 3 102 23 131 37 56 79 74 184 78 l93 4 0 899
0 899 298 -2 297 -3 3 -897z m3212 -1370 c80 -41 85 -55 88 -254 l3 -174
-2251 0 -2251 0 3 179 c3 175 4 180 28 207 14 14 43 35 65 45 38 18 120 19
2155 19 l2116 0 44 -22z m-3784 -1341 c83 -56 106 -123 84 -247 -35 -205 -40
-225 -61 -242 -32 -27 -104 -24 -123 4 -22 31 -14 69 44 208 55 132 66 174 51
213 -13 35 -28 34 -80 -3 -90 -65 -190 -261 -199 -387 -6 -94 10 -123 67 -123
23 0 48 -8 61 -18 22 -18 22 -19 4 -36 -14 -15 -28 -17 -65 -13 -62 8 -103
-19 -141 -92 -54 -104 -32 -224 48 -257 47 -20 100 -12 180 26 51 25 63 36 77
70 11 30 25 44 50 55 42 17 79 73 174 261 l66 131 -13 67 c-18 97 5 204 52
243 29 25 65 26 88 3 34 -34 23 -111 -34 -226 l-46 -92 49 -123 c26 -68 53
-145 60 -171 13 -47 11 -185 -3 -223 -15 -39 43 38 88 119 26 46 48 99 52 125
7 51 63 316 71 337 3 9 0 12 -8 9 -8 -3 -43 -1 -78 3 -71 8 -90 28 -67 73 11
22 17 24 96 24 l83 0 29 100 c34 115 48 135 95 135 82 0 100 -40 69 -162 l-21
-86 70 -8 c53 -7 71 -13 73 -26 3 -18 -26 -29 -122 -45 l-49 -8 -48 -170 c-90
-320 -106 -454 -55 -463 26 -5 83 60 144 166 30 50 60 96 68 103 54 45 -19
-139 -100 -248 -53 -72 -103 -106 -157 -106 -67 0 -109 58 -110 150 l0 48 -17
-25 c-41 -61 -116 -129 -165 -151 -41 -18 -71 -23 -142 -23 -104 -1 -166 18
-209 63 l-28 29 -49 -35 c-87 -62 -204 -87 -292 -62 -157 43 -204 283 -83 427
16 18 48 44 73 58 44 26 44 27 24 46 -54 50 -69 121 -46 223 23 103 76 204
146 280 103 110 187 132 275 72z m3082 -141 c5 -45 -7 -77 -41 -108 -23 -22
-32 -40 -33 -67 -3 -52 -43 -128 -103 -193 l-50 -55 34 -33 c51 -49 69 -104
63 -193 -11 -175 -128 -307 -271 -307 -97 0 -171 44 -208 125 -21 45 -25 126
-8 174 18 52 92 78 134 47 17 -12 18 -19 5 -104 -18 -128 1 -202 54 -202 85 0
174 264 136 402 -10 35 -12 37 -37 27 -38 -14 -83 6 -83 37 0 34 39 57 83 49
34 -7 36 -5 75 52 22 32 57 90 77 129 l37 69 -79 7 c-152 15 -206 13 -241 -7
-69 -41 -68 45 3 123 l43 47 73 0 c41 0 112 -4 159 -9 68 -6 92 -5 120 8 44
19 54 16 58 -18z m-1230 4 c22 -14 32 -27 32 -45 0 -14 -27 -132 -60 -263 -34
-130 -78 -325 -100 -433 -22 -108 -42 -203 -46 -212 -14 -37 -107 -23 -126 19
-14 30 3 137 72 444 26 118 51 229 55 245 6 30 6 30 -27 -10 -57 -70 -107
-117 -119 -113 -7 2 -19 14 -27 26 -13 20 -10 25 58 89 42 40 99 108 136 165
78 118 91 125 152 88z m468 1 c73 -33 112 -110 121 -235 10 -150 -37 -336
-124 -486 -44 -76 -183 -220 -231 -240 -43 -17 -81 -5 -102 34 -15 27 -14 29
15 49 60 43 151 144 183 204 17 33 32 63 32 66 0 3 -17 -4 -37 -14 -69 -35
-139 -19 -187 43 -32 43 -46 98 -46 182 0 269 198 478 376 397z m1224 -12 c25
-14 48 -40 67 -73 25 -46 28 -60 28 -151 0 -79 -5 -114 -24 -168 -43 -127
-150 -260 -326 -409 -41 -34 -73 -63 -72 -64 5 -5 172 35 236 56 58 19 65 20
80 6 20 -20 18 -89 -4 -122 -28 -43 -52 -47 -153 -30 -117 20 -156 20 -215 -1
-47 -17 -47 -17 -71 7 -52 54 -50 59 102 208 198 194 266 304 298 485 20 113
-2 247 -40 247 -23 0 -66 -48 -87 -97 -24 -57 -45 -144 -54 -231 -7 -59 -23
-92 -47 -92 -27 0 -77 35 -93 64 -36 66 1 201 80 293 74 87 209 120 295 72z
m-2470 -779 c41 -41 13 -138 -51 -172 -39 -21 -58 -22 -93 -7 -59 27 -56 124
7 173 41 33 107 36 137 6z"/>
<path d="M3586 2317 c-21 -40 -58 -101 -81 -137 l-43 -65 7 -92 c8 -100 19
-123 60 -123 84 0 127 164 104 402 l-8 87 -39 -72z"/>
<path d="M5576 2764 c-65 -66 -100 -198 -94 -350 2 -75 7 -98 24 -121 29 -39
56 -40 98 -3 43 38 70 108 92 233 19 109 13 195 -17 243 -28 45 -58 45 -103
-2z"/>
</g>
</svg>
